<svg width="180" height="36" viewBox="0 0 180 36" fill="none" xmlns="http://www.w3.org/2000/svg">
<path d="M7.57895 15.2183C7.57895 15.8204 8.04662 16.3223 8.64876 16.3343C10.8573 16.3785 12.9925 16.1049 15.3012 15.4713L14.2392 14.5276C13.6621 14.0147 14.0047 13.0604 14.7764 13.0315L19.8676 12.8408C20.5731 12.8144 21.0061 13.6045 20.6039 14.1846L17.7018 18.3707C17.2619 19.0051 16.273 18.7799 16.1514 18.0176L15.9136 16.526C12.4978 19.4147 10.4483 22.346 8.86677 26.9584C8.61853 27.6823 9.16827 28.4211 9.93384 28.4211H22.4585C23.2662 28.4211 23.8189 27.606 23.5197 26.856L21.0415 20.6437C22.0255 20.0469 22.7864 19.2589 23.324 18.2798C23.8707 17.2913 24.144 16.1489 24.144 14.8527C24.144 13.3607 23.8205 12.0738 23.1736 10.992C22.5358 9.90096 21.6246 9.06168 20.4401 8.47418C19.2556 7.87736 17.8524 7.57895 16.2305 7.57895H8.72137C8.09043 7.57895 7.57895 8.09026 7.57895 8.72098V15.2183Z" fill="#222222"/>
<path d="M32.6357 27V9.00237H38.5303C40.3985 9.00237 42.017 9.38084 43.386 10.1378C44.771 10.8786 45.842 11.9255 46.599 13.2783C47.3559 14.6312 47.7344 16.2014 47.7344 17.9891C47.7344 19.7607 47.3559 21.3309 46.599 22.6999C45.842 24.0527 44.771 25.1076 43.386 25.8646C42.017 26.6215 40.3985 27 38.5303 27H32.6357ZM35.4864 24.4634H38.5786C39.8509 24.4634 40.9541 24.1977 41.8882 23.6662C42.8384 23.1347 43.5712 22.3858 44.0866 21.4195C44.6019 20.4532 44.8596 19.3097 44.8596 17.9891C44.8596 16.6685 44.5939 15.5331 44.0624 14.5828C43.547 13.6165 42.8223 12.8676 41.8882 12.3362C40.9541 11.8047 39.8509 11.5389 38.5786 11.5389H35.4864V24.4634ZM49.3098 27V13.9306H51.9188V16.5638L51.6772 16.1773C51.9671 15.3237 52.4342 14.7117 53.0784 14.3413C53.7226 13.9547 54.4957 13.7615 55.3976 13.7615H56.1948V16.2497H55.0594C54.1575 16.2497 53.4247 16.5316 52.861 17.0953C52.3134 17.6428 52.0396 18.432 52.0396 19.4627V27H49.3098ZM63.2321 27.2899C61.9276 27.2899 60.768 26.9919 59.7533 26.3961C58.7548 25.7841 57.9737 24.9627 57.41 23.9319C56.8463 22.8851 56.5645 21.7175 56.5645 20.4291C56.5645 19.1084 56.8463 17.9408 57.41 16.9262C57.9898 15.9115 58.7629 15.1143 59.7292 14.5345C60.6955 13.9386 61.7907 13.6407 63.0147 13.6407C63.9971 13.6407 64.8748 13.8098 65.6479 14.148C66.4209 14.4862 67.0732 14.9533 67.6047 15.5492C68.1361 16.1289 68.5388 16.7973 68.8126 17.5543C69.1025 18.3112 69.2474 19.1165 69.2474 19.9701C69.2474 20.1794 69.2393 20.3968 69.2232 20.6223C69.2071 20.8478 69.1749 21.0572 69.1266 21.2504H58.7146V19.0762H67.5805L66.276 20.0667C66.437 19.2775 66.3807 18.5769 66.1069 17.9649C65.8492 17.3368 65.4466 16.8456 64.899 16.4913C64.3675 16.1209 63.7394 15.9357 63.0147 15.9357C62.2899 15.9357 61.6457 16.1209 61.082 16.4913C60.5183 16.8456 60.0835 17.361 59.7775 18.0374C59.4715 18.6977 59.3507 19.503 59.4151 20.4532C59.3346 21.339 59.4554 22.1121 59.7775 22.7724C60.1157 23.4327 60.5828 23.9481 61.1787 24.3185C61.7907 24.6889 62.4832 24.8741 63.2562 24.8741C64.0454 24.8741 64.7138 24.6969 65.2613 24.3426C65.825 23.9883 66.2679 23.5293 66.59 22.9656L68.8126 24.0527C68.5549 24.6647 68.1522 25.2204 67.6047 25.7196C67.0732 26.2028 66.429 26.5893 65.672 26.8792C64.9312 27.153 64.1179 27.2899 63.2321 27.2899ZM74.7409 27.2899C73.8551 27.2899 73.074 27.1369 72.3976 26.8309C71.7372 26.5088 71.2219 26.0739 70.8514 25.5264C70.481 24.9627 70.2958 24.3024 70.2958 23.5454C70.2958 22.8368 70.4488 22.2006 70.7548 21.6369C71.0769 21.0733 71.5681 20.5982 72.2284 20.2116C72.8888 19.8251 73.7182 19.5513 74.7167 19.3903L79.2584 18.6414V20.7914L75.2482 21.492C74.5234 21.6208 73.992 21.8544 73.6538 22.1926C73.3156 22.5147 73.1464 22.9334 73.1464 23.4488C73.1464 23.9481 73.3317 24.3587 73.7021 24.6808C74.0886 24.9868 74.5798 25.1398 75.1757 25.1398C75.9166 25.1398 76.5608 24.9788 77.1083 24.6567C77.672 24.3346 78.1069 23.9078 78.4129 23.3763C78.7189 22.8287 78.8719 22.2248 78.8719 21.5645V18.2065C78.8719 17.5623 78.6303 17.0389 78.1471 16.6363C77.6801 16.2175 77.052 16.0082 76.2628 16.0082C75.5381 16.0082 74.9019 16.2014 74.3543 16.5879C73.8229 16.9584 73.4283 17.4415 73.1706 18.0374L70.8998 16.902C71.1413 16.2578 71.5359 15.6941 72.0835 15.2109C72.6311 14.7117 73.2672 14.3252 73.992 14.0514C74.7328 13.7776 75.5139 13.6407 76.3353 13.6407C77.366 13.6407 78.276 13.8339 79.0651 14.2205C79.8704 14.607 80.4904 15.1465 80.9253 15.8391C81.3762 16.5155 81.6017 17.3046 81.6017 18.2065V27H78.9927V24.6325L79.5483 24.705C79.2423 25.2365 78.8477 25.6955 78.3646 26.082C77.8975 26.4685 77.358 26.7665 76.746 26.9758C76.1501 27.1852 75.4817 27.2899 74.7409 27.2899ZM83.8273 27V13.9306H86.4363V16.7571L86.0981 16.3222C86.3719 15.4364 86.8712 14.7681 87.5959 14.3171C88.3206 13.8662 89.15 13.6407 90.0842 13.6407C91.131 13.6407 92.057 13.9225 92.8623 14.4862C93.6837 15.0338 94.2313 15.7666 94.505 16.6846L93.732 16.7571C94.1185 15.7102 94.7064 14.9291 95.4955 14.4137C96.3008 13.8984 97.2188 13.6407 98.2495 13.6407C99.1514 13.6407 99.9647 13.8501 100.689 14.2688C101.43 14.6875 102.018 15.2673 102.453 16.0082C102.888 16.749 103.105 17.5945 103.105 18.5447V27H100.375V19.2936C100.375 18.6333 100.255 18.0777 100.013 17.6267C99.7876 17.1597 99.4655 16.8054 99.0467 16.5638C98.6441 16.3061 98.169 16.1773 97.6214 16.1773C97.0738 16.1773 96.5907 16.3061 96.1719 16.5638C95.7532 16.8054 95.423 17.1597 95.1815 17.6267C94.9399 18.0938 94.8191 18.6494 94.8191 19.2936V27H92.1134V19.2936C92.1134 18.6333 91.9926 18.0777 91.751 17.6267C91.5256 17.1597 91.2035 16.8054 90.7847 16.5638C90.3821 16.3061 89.8989 16.1773 89.3353 16.1773C88.7877 16.1773 88.3045 16.3061 87.8858 16.5638C87.467 16.8054 87.1369 17.1597 86.8953 17.6267C86.6698 18.0938 86.5571 18.6494 86.5571 19.2936V27H83.8273ZM109.892 27.2899C108.556 27.2899 107.38 26.9597 106.365 26.2994C105.367 25.6391 104.666 24.7533 104.264 23.6421L106.365 22.6516C106.72 23.3924 107.203 23.9803 107.815 24.4151C108.443 24.8499 109.135 25.0674 109.892 25.0674C110.537 25.0674 111.06 24.9224 111.463 24.6325C111.865 24.3426 112.067 23.9481 112.067 23.4488C112.067 23.1267 111.978 22.869 111.801 22.6757C111.624 22.4664 111.398 22.2973 111.124 22.1684C110.867 22.0396 110.601 21.9429 110.327 21.8785L108.274 21.2987C107.146 20.9766 106.301 20.4935 105.737 19.8493C105.19 19.1889 104.916 18.4239 104.916 17.5543C104.916 16.7651 105.117 16.0806 105.52 15.5008C105.922 14.9049 106.478 14.4459 107.187 14.1238C107.895 13.8017 108.692 13.6407 109.578 13.6407C110.77 13.6407 111.833 13.9386 112.767 14.5345C113.701 15.1143 114.362 15.9276 114.748 16.9745L112.646 17.9649C112.389 17.3368 111.978 16.8376 111.414 16.4672C110.867 16.0967 110.247 15.9115 109.554 15.9115C108.958 15.9115 108.483 16.0565 108.129 16.3464C107.774 16.6202 107.597 16.9825 107.597 17.4335C107.597 17.7395 107.678 17.9972 107.839 18.2065C108 18.3998 108.209 18.5608 108.467 18.6897C108.725 18.8024 108.99 18.8991 109.264 18.9796L111.39 19.6077C112.469 19.9137 113.299 20.3968 113.878 21.0572C114.458 21.7014 114.748 22.4744 114.748 23.3763C114.748 24.1494 114.539 24.8338 114.12 25.4297C113.717 26.0095 113.154 26.4685 112.429 26.8067C111.704 27.1288 110.859 27.2899 109.892 27.2899ZM122.665 27.2899C121.361 27.2899 120.201 26.9919 119.186 26.3961C118.188 25.7841 117.391 24.9627 116.795 23.9319C116.215 22.9012 115.925 21.7336 115.925 20.4291C115.925 19.1406 116.215 17.9811 116.795 16.9503C117.374 15.9196 118.172 15.1143 119.186 14.5345C120.201 13.9386 121.361 13.6407 122.665 13.6407C123.551 13.6407 124.38 13.8017 125.153 14.1238C125.926 14.4298 126.595 14.8566 127.158 15.4042C127.738 15.9518 128.165 16.5879 128.439 17.3127L126.047 18.4239C125.773 17.7475 125.33 17.208 124.718 16.8054C124.123 16.3866 123.438 16.1773 122.665 16.1773C121.924 16.1773 121.256 16.3625 120.66 16.7329C120.08 17.0872 119.621 17.5945 119.283 18.2548C118.945 18.8991 118.776 19.6318 118.776 20.4532C118.776 21.2746 118.945 22.0154 119.283 22.6757C119.621 23.3199 120.08 23.8273 120.66 24.1977C121.256 24.5681 121.924 24.7533 122.665 24.7533C123.454 24.7533 124.139 24.552 124.718 24.1494C125.314 23.7306 125.757 23.175 126.047 22.4825L128.439 23.6179C128.181 24.3104 127.762 24.9385 127.183 25.5022C126.619 26.0498 125.951 26.4846 125.177 26.8067C124.404 27.1288 123.567 27.2899 122.665 27.2899ZM133.936 27.2899C133.05 27.2899 132.269 27.1369 131.593 26.8309C130.933 26.5088 130.417 26.0739 130.047 25.5264C129.676 24.9627 129.491 24.3024 129.491 23.5454C129.491 22.8368 129.644 22.2006 129.95 21.6369C130.272 21.0733 130.763 20.5982 131.424 20.2116C132.084 19.8251 132.914 19.5513 133.912 19.3903L138.454 18.6414V20.7914L134.444 21.492C133.719 21.6208 133.187 21.8544 132.849 22.1926C132.511 22.5147 132.342 22.9334 132.342 23.4488C132.342 23.9481 132.527 24.3587 132.897 24.6808C133.284 24.9868 133.775 25.1398 134.371 25.1398C135.112 25.1398 135.756 24.9788 136.304 24.6567C136.867 24.3346 137.302 23.9078 137.608 23.3763C137.914 22.8287 138.067 22.2248 138.067 21.5645V18.2065C138.067 17.5623 137.826 17.0389 137.342 16.6363C136.875 16.2175 136.247 16.0082 135.458 16.0082C134.733 16.0082 134.097 16.2014 133.55 16.5879C133.018 16.9584 132.624 17.4415 132.366 18.0374L130.095 16.902C130.337 16.2578 130.731 15.6941 131.279 15.2109C131.826 14.7117 132.463 14.3252 133.187 14.0514C133.928 13.7776 134.709 13.6407 135.531 13.6407C136.561 13.6407 137.471 13.8339 138.26 14.2205C139.066 14.607 139.686 15.1465 140.121 15.8391C140.572 16.5155 140.797 17.3046 140.797 18.2065V27H138.188V24.6325L138.744 24.705C138.438 25.2365 138.043 25.6955 137.56 26.082C137.093 26.4685 136.553 26.7665 135.941 26.9758C135.345 27.1852 134.677 27.2899 133.936 27.2899ZM143.023 31.8316V13.9306H145.632V16.6363L145.318 16.0082C145.801 15.2673 146.445 14.6875 147.25 14.2688C148.055 13.8501 148.973 13.6407 150.004 13.6407C151.244 13.6407 152.356 13.9386 153.338 14.5345C154.337 15.1304 155.118 15.9437 155.681 16.9745C156.261 18.0052 156.551 19.1648 156.551 20.4532C156.551 21.7416 156.261 22.9012 155.681 23.9319C155.118 24.9627 154.345 25.7841 153.362 26.3961C152.38 26.9919 151.26 27.2899 150.004 27.2899C148.99 27.2899 148.064 27.0805 147.226 26.6618C146.405 26.2431 145.769 25.6391 145.318 24.8499L145.752 24.3426V31.8316H143.023ZM149.738 24.7533C150.512 24.7533 151.196 24.5681 151.792 24.1977C152.388 23.8273 152.855 23.3199 153.193 22.6757C153.547 22.0154 153.725 21.2746 153.725 20.4532C153.725 19.6318 153.547 18.8991 153.193 18.2548C152.855 17.6106 152.388 17.1033 151.792 16.7329C151.196 16.3625 150.512 16.1773 149.738 16.1773C148.982 16.1773 148.297 16.3625 147.685 16.7329C147.089 17.1033 146.614 17.6106 146.26 18.2548C145.922 18.8991 145.752 19.6318 145.752 20.4532C145.752 21.2746 145.922 22.0154 146.26 22.6757C146.614 23.3199 147.089 23.8273 147.685 24.1977C148.297 24.5681 148.982 24.7533 149.738 24.7533ZM164.376 27.2899C163.072 27.2899 161.912 26.9919 160.898 26.3961C159.899 25.7841 159.118 24.9627 158.554 23.9319C157.991 22.8851 157.709 21.7175 157.709 20.4291C157.709 19.1084 157.991 17.9408 158.554 16.9262C159.134 15.9115 159.907 15.1143 160.873 14.5345C161.84 13.9386 162.935 13.6407 164.159 13.6407C165.141 13.6407 166.019 13.8098 166.792 14.148C167.565 14.4862 168.217 14.9533 168.749 15.5492C169.28 16.1289 169.683 16.7973 169.957 17.5543C170.247 18.3112 170.392 19.1165 170.392 19.9701C170.392 20.1794 170.384 20.3968 170.367 20.6223C170.351 20.8478 170.319 21.0572 170.271 21.2504H159.859V19.0762H168.725L167.42 20.0667C167.581 19.2775 167.525 18.5769 167.251 17.9649C166.993 17.3368 166.591 16.8456 166.043 16.4913C165.512 16.1209 164.884 15.9357 164.159 15.9357C163.434 15.9357 162.79 16.1209 162.226 16.4913C161.663 16.8456 161.228 17.361 160.922 18.0374C160.616 18.6977 160.495 19.503 160.559 20.4532C160.479 21.339 160.6 22.1121 160.922 22.7724C161.26 23.4327 161.727 23.9481 162.323 24.3185C162.935 24.6889 163.627 24.8741 164.4 24.8741C165.19 24.8741 165.858 24.6969 166.406 24.3426C166.969 23.9883 167.412 23.5293 167.734 22.9656L169.957 24.0527C169.699 24.6647 169.296 25.2204 168.749 25.7196C168.217 26.2028 167.573 26.5893 166.816 26.8792C166.075 27.153 165.262 27.2899 164.376 27.2899Z" fill="#222222"/>
</svg>
